<svg xmlns="http://www.w3.org/2000/svg" xmlns:xlink="http://www.w3.org/1999/xlink" width="500" zoomAndPan="magnify" viewBox="0 0 375 374.999991" height="500" preserveAspectRatio="xMidYMid meet" version="1.0"><defs><g/><clipPath id="2ec621af1d"><path d="M -38.460938 48.742188 L 326.257812 -38.460938 L 413.460938 326.257812 L 48.742188 413.460938 Z M -38.460938 48.742188 " clip-rule="nonzero"/></clipPath><clipPath id="4f7ebc8002"><path d="M -38.460938 48.742188 L 326.257812 -38.460938 L 413.460938 326.257812 L 48.742188 413.460938 Z M -38.460938 48.742188 " clip-rule="nonzero"/></clipPath><clipPath id="7124287d50"><path d="M 143.898438 5.140625 C 43.183594 29.222656 -18.941406 130.386719 5.140625 231.101562 C 29.222656 331.816406 130.386719 393.941406 231.101562 369.859375 C 331.816406 345.777344 393.941406 244.613281 369.859375 143.898438 C 345.777344 43.183594 244.613281 -18.941406 143.898438 5.140625 Z M 143.898438 5.140625 " clip-rule="nonzero"/></clipPath></defs><g clip-path="url(#2ec621af1d)"><g clip-path="url(#4f7ebc8002)"><g clip-path="url(#7124287d50)"><path stroke-linecap="butt" transform="matrix(0.729438, -0.174412, 0.174412, 0.729438, -38.46263, 48.743435)" fill="none" stroke-linejoin="miter" d="M 250.001833 0.000735854 C 111.929874 0.00157176 -0.0000839166 111.9262 0.000751991 249.998158 C 0.0015879 388.070116 111.926216 500.000075 249.998174 499.999239 C 388.070133 499.998403 500.000091 388.073775 499.999255 250.001816 C 499.998419 111.929858 388.073791 -0.000100053 250.001833 0.000735854 Z M 250.001833 0.000735854 " stroke="#ffffff" stroke-width="20" stroke-opacity="1" stroke-miterlimit="4"/></g></g></g><g fill="#ffffff" fill-opacity="1"><g transform="translate(70.816919, 269.468298)"><g><path d="M 9.609375 21.25 C 7.773438 21.625 6.203125 21.160156 4.890625 19.859375 C 3.773438 18.710938 3.285156 17.425781 3.421875 16 C 3.566406 14.570312 3.9375 13.1875 4.53125 11.84375 C 7.34375 2.738281 11.066406 -5.941406 15.703125 -14.203125 C 20.347656 -22.472656 25.253906 -30.53125 30.421875 -38.375 L 78.109375 -113.203125 C 80.628906 -117.035156 83.472656 -121.582031 86.640625 -126.84375 C 89.816406 -132.113281 92.707031 -137.492188 95.3125 -142.984375 C 97.925781 -148.484375 99.65625 -153.398438 100.5 -157.734375 C 100.78125 -160.585938 100.445312 -162.613281 99.5 -163.8125 C 98.5625 -165.007812 96.601562 -165.644531 93.625 -165.71875 C 92.550781 -165.851562 91.679688 -165.851562 91.015625 -165.71875 C 90.515625 -165.613281 90.015625 -165.507812 89.515625 -165.40625 C 89.015625 -165.300781 88.59375 -165.210938 88.25 -165.140625 C 87.925781 -165.078125 87.554688 -165 87.140625 -164.90625 C 86.722656 -164.820312 86.34375 -164.75 86 -164.6875 C 85 -164.476562 84.269531 -164.238281 83.8125 -163.96875 C 72.8125 -159.945312 62.234375 -155.363281 52.078125 -150.21875 C 41.921875 -145.082031 32.3125 -138.796875 23.25 -131.359375 L 20.53125 -129.234375 C 20.40625 -129.023438 19.925781 -128.835938 19.09375 -128.671875 C 18.09375 -128.460938 17.273438 -128.640625 16.640625 -129.203125 C 15.179688 -130.296875 15.1875 -131.515625 16.65625 -132.859375 C 18.90625 -136.285156 23 -140.046875 28.9375 -144.140625 C 34.882812 -148.234375 41.546875 -152.210938 48.921875 -156.078125 C 56.296875 -159.953125 63.390625 -163.289062 70.203125 -166.09375 C 77.015625 -168.894531 82.507812 -170.726562 86.6875 -171.59375 C 88.1875 -171.90625 89.703125 -172.132812 91.234375 -172.28125 C 92.773438 -172.425781 94.347656 -172.398438 95.953125 -172.203125 C 104.316406 -171.328125 108.066406 -166.625 107.203125 -158.09375 C 106.828125 -154.882812 105.75 -151.050781 103.96875 -146.59375 C 102.1875 -142.144531 100.039062 -137.570312 97.53125 -132.875 C 95.03125 -128.175781 92.515625 -123.738281 89.984375 -119.5625 C 87.453125 -115.382812 85.320312 -111.988281 83.59375 -109.375 L 32.328125 -29.125 C 31.023438 -27.101562 29.265625 -24.296875 27.046875 -20.703125 C 24.828125 -17.117188 22.625 -13.234375 20.4375 -9.046875 C 18.257812 -4.859375 16.378906 -0.90625 14.796875 2.8125 C 13.222656 6.53125 12.421875 9.609375 12.390625 12.046875 C 14.867188 11.367188 17.238281 10.1875 19.5 8.5 C 20.570312 7.757812 21.554688 7.035156 22.453125 6.328125 C 23.347656 5.617188 24.335938 4.972656 25.421875 4.390625 C 28.453125 2.210938 31.484375 0.03125 34.515625 -2.15625 C 37.546875 -4.351562 40.570312 -6.550781 43.59375 -8.75 C 46.625 -10.9375 49.691406 -13.128906 52.796875 -15.328125 C 55.910156 -17.535156 59.003906 -19.660156 62.078125 -21.703125 C 71.179688 -28.097656 80.6875 -33.625 90.59375 -38.28125 C 100.5 -42.945312 110.59375 -47.378906 120.875 -51.578125 C 120.988281 -51.785156 121.546875 -51.988281 122.546875 -52.1875 C 123.390625 -52.363281 123.914062 -52.382812 124.125 -52.25 C 125.1875 -52.113281 125.941406 -51.398438 126.390625 -50.109375 C 127.085938 -49.210938 126.859375 -48.210938 125.703125 -47.109375 C 125.066406 -46.796875 124.515625 -46.503906 124.046875 -46.234375 C 123.585938 -45.972656 123.125 -45.703125 122.65625 -45.421875 C 122.019531 -45.117188 121.425781 -44.820312 120.875 -44.53125 C 120.332031 -44.25 119.738281 -43.953125 119.09375 -43.640625 L 99.21875 -35.109375 C 92.050781 -31.878906 85.144531 -28.226562 78.5 -24.15625 C 71.851562 -20.09375 65.34375 -15.835938 58.96875 -11.390625 C 54.414062 -8.179688 49.859375 -4.976562 45.296875 -1.78125 C 40.734375 1.414062 36.191406 4.703125 31.671875 8.078125 C 30.128906 9.085938 28.640625 10.085938 27.203125 11.078125 C 25.765625 12.066406 24.296875 13.15625 22.796875 14.34375 C 21.265625 15.351562 19.765625 16.3125 18.296875 17.21875 C 16.835938 18.132812 15.226562 18.953125 13.46875 19.671875 C 13.164062 19.910156 12.847656 20.0625 12.515625 20.125 C 12.179688 20.195312 11.863281 20.34375 11.5625 20.5625 C 11.101562 20.84375 10.453125 21.070312 9.609375 21.25 Z M 9.609375 21.25 "/></g></g></g><g fill="#ffffff" fill-opacity="1"><g transform="translate(188.43543, 245.173888)"><g><path d="M 9.59375 -12.953125 C 2.75 -11.535156 -2.140625 -13.738281 -5.078125 -19.5625 C -5.859375 -20.800781 -6.566406 -22.132812 -7.203125 -23.5625 C -7.847656 -24.988281 -8.234375 -26.390625 -8.359375 -27.765625 C -8.960938 -29.898438 -9.242188 -31.925781 -9.203125 -33.84375 C -9.171875 -35.769531 -9.09375 -37.695312 -8.96875 -39.625 C -8.289062 -43.945312 -7.132812 -48.664062 -5.5 -53.78125 C -3.863281 -58.90625 -1.613281 -63.585938 1.25 -67.828125 C 4.113281 -72.078125 7.644531 -74.988281 11.84375 -76.5625 C 12.34375 -76.664062 12.660156 -76.816406 12.796875 -77.015625 C 12.953125 -77.046875 13.113281 -77.078125 13.28125 -77.109375 C 13.457031 -77.148438 13.625 -77.1875 13.78125 -77.21875 C 16.289062 -77.738281 18.425781 -77.304688 20.1875 -75.921875 C 21.957031 -74.546875 22.96875 -72.40625 23.21875 -69.5 C 23.382812 -65.363281 22.28125 -60.832031 19.90625 -55.90625 C 17.53125 -50.976562 14.46875 -46.601562 10.71875 -42.78125 C 6.976562 -38.96875 3.164062 -36.398438 -0.71875 -35.078125 C -1.820312 -34.492188 -2.335938 -33.601562 -2.265625 -32.40625 C -2.367188 -29.601562 -1.515625 -26.734375 0.296875 -23.796875 C 1.378906 -21.066406 2.679688 -19.597656 4.203125 -19.390625 C 5.722656 -19.179688 7.65625 -19.320312 10 -19.8125 C 14.800781 -21.84375 19.472656 -25.109375 24.015625 -29.609375 C 28.566406 -34.117188 32.332031 -38.421875 35.3125 -42.515625 C 36.539062 -44.171875 37.75 -45.898438 38.9375 -47.703125 C 40.132812 -49.515625 41.347656 -51.242188 42.578125 -52.890625 C 43.628906 -54.503906 44.757812 -56.171875 45.96875 -57.890625 C 47.175781 -59.617188 48.394531 -61.3125 49.625 -62.96875 C 49.882812 -63.363281 50.222656 -63.816406 50.640625 -64.328125 C 51.054688 -64.847656 51.394531 -65.316406 51.65625 -65.734375 C 51.914062 -66.140625 52.210938 -66.585938 52.546875 -67.078125 C 52.878906 -67.578125 53.175781 -68.035156 53.4375 -68.453125 C 54.175781 -69.117188 54.796875 -69.503906 55.296875 -69.609375 C 55.953125 -69.742188 56.582031 -69.613281 57.1875 -69.21875 C 58.769531 -68.332031 59.28125 -67.132812 58.71875 -65.625 C 58.664062 -65.09375 58.171875 -64.117188 57.234375 -62.703125 C 54.890625 -58.898438 51.910156 -54.367188 48.296875 -49.109375 C 44.691406 -43.847656 40.722656 -38.640625 36.390625 -33.484375 C 32.066406 -28.335938 27.601562 -23.851562 23 -20.03125 C 18.394531 -16.207031 13.925781 -13.847656 9.59375 -12.953125 Z M 0.96875 -43.265625 C 2.90625 -44.878906 5.171875 -47.171875 7.765625 -50.140625 C 10.367188 -53.109375 12.597656 -56.21875 14.453125 -59.46875 C 16.304688 -62.726562 16.957031 -65.691406 16.40625 -68.359375 C 15.894531 -69.992188 15.003906 -70.503906 13.734375 -69.890625 C 11.140625 -69.015625 8.765625 -67.046875 6.609375 -63.984375 C 4.460938 -60.929688 2.710938 -57.613281 1.359375 -54.03125 C 0.015625 -50.445312 -0.878906 -47.21875 -1.328125 -44.34375 C -1.148438 -43.507812 -0.898438 -43.128906 -0.578125 -43.203125 C 0.328125 -43.035156 0.84375 -43.054688 0.96875 -43.265625 Z M 0.96875 -43.265625 "/></g></g></g><g fill="#ffffff" fill-opacity="1"><g transform="translate(245.49292, 233.388516)"><g><path d="M 1.5625 17.671875 C -0.4375 18.085938 -1.625 17.378906 -2 15.546875 C -2.207031 14.535156 -2.382812 13.484375 -2.53125 12.390625 C -2.675781 11.296875 -2.78125 10.140625 -2.84375 8.921875 L -3.65625 -7.59375 C -3.632812 -9.164062 -3.859375 -10.6875 -4.328125 -12.15625 C -4.804688 -13.625 -5.285156 -15.085938 -5.765625 -16.546875 C -6.078125 -18.046875 -5.851562 -19.488281 -5.09375 -20.875 C -3.96875 -22.15625 -3.492188 -23.640625 -3.671875 -25.328125 C -3.753906 -28.273438 -3.769531 -31.316406 -3.71875 -34.453125 C -3.675781 -37.585938 -3.523438 -40.664062 -3.265625 -43.6875 C -3.253906 -44.382812 -3.269531 -45.070312 -3.3125 -45.75 C -3.363281 -46.4375 -3.78125 -46.960938 -4.5625 -47.328125 C -6.132812 -48.222656 -6.898438 -49.195312 -6.859375 -50.25 C -6.816406 -51.300781 -6.578125 -52.484375 -6.140625 -53.796875 C -3.910156 -58.953125 -2.269531 -64.242188 -1.21875 -69.671875 C -0.164062 -75.109375 0.832031 -80.625 1.78125 -86.21875 C 1.832031 -86.75 2.210938 -88.867188 2.921875 -92.578125 C 3.640625 -96.296875 4.503906 -100.738281 5.515625 -105.90625 C 6.535156 -111.082031 7.726562 -116.25 9.09375 -121.40625 C 10.46875 -126.5625 11.878906 -130.894531 13.328125 -134.40625 C 14.785156 -137.914062 16.265625 -139.828125 17.765625 -140.140625 C 18.429688 -140.273438 19.128906 -140.25 19.859375 -140.0625 C 21.367188 -139.5 22.117188 -138.4375 22.109375 -136.875 C 21.921875 -133.519531 21.347656 -129.304688 20.390625 -124.234375 C 19.441406 -119.171875 18.269531 -113.882812 16.875 -108.375 C 15.488281 -102.875 14.035156 -97.707031 12.515625 -92.875 C 10.992188 -88.039062 9.691406 -84.035156 8.609375 -80.859375 C 6.347656 -74.117188 4.925781 -66.90625 4.34375 -59.21875 C 3.757812 -51.53125 3.320312 -44.179688 3.03125 -37.171875 C 2.988281 -36.453125 2.976562 -35.832031 3 -35.3125 C 3.03125 -34.800781 3.28125 -34.25 3.75 -33.65625 C 5.082031 -34.800781 5.820312 -35.820312 5.96875 -36.71875 C 6.070312 -37.96875 6.390625 -38.988281 6.921875 -39.78125 C 8.765625 -45.195312 10.898438 -50.640625 13.328125 -56.109375 C 15.765625 -61.578125 18.878906 -66.523438 22.671875 -70.953125 C 23.398438 -71.628906 24.132812 -72.257812 24.875 -72.84375 C 25.625 -73.4375 26.484375 -73.914062 27.453125 -74.28125 C 29.085938 -74.8125 30.609375 -74.609375 32.015625 -73.671875 C 33.421875 -72.742188 34.128906 -71.410156 34.140625 -69.671875 C 34.390625 -66.773438 33.535156 -63.125 31.578125 -58.71875 C 29.617188 -54.3125 27.363281 -50.0625 24.8125 -45.96875 C 22.269531 -41.875 20.125 -38.597656 18.375 -36.140625 C 17.144531 -34.503906 15.875 -32.851562 14.5625 -31.1875 C 13.25 -29.519531 11.898438 -27.851562 10.515625 -26.1875 C 10.109375 -25.582031 10.078125 -24.878906 10.421875 -24.078125 C 10.929688 -23.304688 11.601562 -23.003906 12.4375 -23.171875 C 22.601562 -26.148438 31.648438 -29.9375 39.578125 -34.53125 C 47.503906 -39.125 54.832031 -45.769531 61.5625 -54.46875 C 62.65625 -55.90625 63.757812 -57.300781 64.875 -58.65625 C 65.988281 -60.019531 67 -61.410156 67.90625 -62.828125 C 69 -64.265625 70.054688 -65.65625 71.078125 -67 C 72.109375 -68.34375 73.175781 -69.738281 74.28125 -71.1875 C 74.539062 -71.59375 74.84375 -72.003906 75.1875 -72.421875 C 75.539062 -72.835938 75.851562 -73.25 76.125 -73.65625 C 76.382812 -74.050781 76.695312 -74.414062 77.0625 -74.75 C 77.425781 -75.09375 77.757812 -75.382812 78.0625 -75.625 C 78.1875 -75.820312 78.582031 -75.988281 79.25 -76.125 C 79.925781 -76.257812 80.765625 -76 81.765625 -75.34375 C 82.867188 -74.175781 83.164062 -73.1875 82.65625 -72.375 C 82.582031 -71.84375 82.082031 -70.878906 81.15625 -69.484375 C 74.96875 -60.710938 68.882812 -52.878906 62.90625 -45.984375 C 56.9375 -39.097656 50.234375 -33.238281 42.796875 -28.40625 C 35.359375 -23.570312 26.269531 -19.785156 15.53125 -17.046875 C 12.53125 -16.421875 10.453125 -15.941406 9.296875 -15.609375 C 8.148438 -15.285156 7.441406 -14.488281 7.171875 -13.21875 C 6.910156 -11.945312 6.515625 -9.691406 5.984375 -6.453125 C 5.878906 -5.222656 5.75 -3.9375 5.59375 -2.59375 C 5.4375 -1.25 5.332031 0.125 5.28125 1.53125 C 5.175781 2.757812 5.003906 4.050781 4.765625 5.40625 C 4.523438 6.757812 4.375 8.132812 4.3125 9.53125 L 3.953125 15.359375 C 3.523438 16.660156 2.726562 17.429688 1.5625 17.671875 Z M 14.421875 -41.328125 C 15.710938 -42.640625 17.453125 -44.957031 19.640625 -48.28125 C 21.828125 -51.601562 23.816406 -55.015625 25.609375 -58.515625 C 27.410156 -62.023438 28.3125 -64.648438 28.3125 -66.390625 C 26.207031 -65.609375 24.128906 -63.65625 22.078125 -60.53125 C 20.023438 -57.414062 18.320312 -54.066406 16.96875 -50.484375 C 15.625 -46.898438 14.773438 -43.847656 14.421875 -41.328125 Z M 14.421875 -41.328125 "/></g></g></g></svg>